<?xml version="1.0" encoding="iso-8859-1"?>
<!-- Generator: Adobe Illustrator 19.0.0, SVG Export Plug-In . SVG Version: 6.00 Build 0)  -->
<svg version="1.1" id="Capa_1" xmlns="http://www.w3.org/2000/svg" xmlns:xlink="http://www.w3.org/1999/xlink" x="0px" y="0px"
	 viewBox="0 0 512 512" style="enable-background:new 0 0 512 512;" xml:space="preserve">
<g>
	<g>
		<path d="M470.114,80.668c-3.92-20.675-20.599-36.89-41.516-40.092C424.176,17.498,403.848,0,379.5,0h-250
			c-24.555,0-45.017,17.796-49.203,41.165C60.85,45.424,45.611,61.029,41.886,80.668C18.163,84.557,0,105.193,0,130v372
			c0,5.522,4.478,10,10,10h492c5.522,0,10-4.478,10-10V130C512,105.193,493.837,84.557,470.114,80.668z M129.5,20h250
			c13.037,0,24.159,8.359,28.286,20H101.214C105.341,28.359,116.463,20,129.5,20z M91,60h330c13.037,0,24.159,8.359,28.286,20
			H62.714C66.841,68.359,77.963,60,91,60z M492,492H20V130c0-16.542,13.458-30,30-30h412c16.542,0,30,13.458,30,30V492z"/>
	</g>
</g>
<g>
	<g>
		<path d="M218.026,279.109c-5.491-3.962-11.693-7.289-18.533-10.021C206.128,258.117,210,245.04,210,231c0-38.598-29.159-70-65-70
			s-65,31.402-65,70c0,14.027,3.866,27.093,10.489,38.058c-6.842,2.736-13.022,6.087-18.515,10.052
			C50.758,294.419,40,318.271,40,350v73c0,5.522,4.478,10,10,10h190c5.522,0,10-4.478,10-10v-73
			C250,318.271,239.242,294.419,218.026,279.109z M145,181c24.813,0,45,22.43,45,50s-20.187,50-45,50s-45-22.43-45-50
			S120.187,181,145,181z M230,413h-20v-59c0-5.522-4.478-10-10-10c-5.522,0-10,4.478-10,10v59h-90v-59c0-5.522-4.478-10-10-10
			c-5.522,0-10,4.478-10,10v59H60v-63c0-34.008,14.518-55.38,44.108-64.64C115.286,295.13,129.516,301,145,301
			c15.487,0,29.72-5.872,40.898-15.646C215.487,294.616,230,315.992,230,350V413z"/>
	</g>
</g>
<g>
	<g>
		<path d="M462.113,200H280c-5.522,0-10,4.478-10,10c0,5.522,4.478,10,10,10h182.113c5.522,0,10-4.478,10-10
			C472.113,204.478,467.636,200,462.113,200z"/>
	</g>
</g>
<g>
	<g>
		<path d="M442.113,160H300c-5.522,0-10,4.478-10,10c0,5.522,4.478,10,10,10h142.113c5.522,0,10-4.478,10-10
			C452.113,164.478,447.635,160,442.113,160z"/>
	</g>
</g>
<g>
	<g>
		<path d="M462,292H320c-5.522,0-10,4.478-10,10c0,5.522,4.478,10,10,10h142c5.522,0,10-4.478,10-10
			C472,296.478,467.522,292,462,292z"/>
	</g>
</g>
<g>
	<g>
		<path d="M372,332c-5.51,0-10,4.49-10,10s4.49,10,10,10s10-4.49,10-10S377.51,332,372,332z"/>
	</g>
</g>
<g>
	<g>
		<path d="M332,332h-50c-5.51,0-10,4.49-10,10s4.49,10,10,10h50c5.51,0,10-4.49,10-10S337.51,332,332,332z"/>
	</g>
</g>
<g>
	<g>
		<path d="M462,332h-50c-5.51,0-10,4.49-10,10s4.49,10,10,10h50c5.51,0,10-4.49,10-10S467.51,332,462,332z"/>
	</g>
</g>
<g>
	<g>
		<path d="M462,372c-5.521,0-10,4.49-10,10s4.479,10,10,10c5.51,0,10-4.49,10-10S467.51,372,462,372z"/>
	</g>
</g>
<g>
	<g>
		<path d="M422,372H280c-5.51,0-10,4.49-10,10s4.49,10,10,10h142c5.51,0,10-4.49,10-10S427.51,372,422,372z"/>
	</g>
</g>
<g>
	<g>
		<path d="M422,412H280c-5.522,0-10,4.478-10,10c0,5.522,4.478,10,10,10h142c5.522,0,10-4.478,10-10
			C432,416.478,427.522,412,422,412z"/>
	</g>
</g>
<g>
</g>
<g>
</g>
<g>
</g>
<g>
</g>
<g>
</g>
<g>
</g>
<g>
</g>
<g>
</g>
<g>
</g>
<g>
</g>
<g>
</g>
<g>
</g>
<g>
</g>
<g>
</g>
<g>
</g>
</svg>
