<svg height="511pt" viewBox="1 -63 511.99951 511" width="511pt" xmlns="http://www.w3.org/2000/svg"><path d="m250.207031 234.972656c58.800781-39.222656 74.675781-118.691406 35.449219-177.496094-39.226562-58.800781-118.695312-74.675781-177.496094-35.449218-58.804687 39.226562-74.675781 118.695312-35.449218 177.496094 9.363281 14.039062 21.410156 26.085937 35.449218 35.449218-63.335937 15.140625-108.046875 71.703125-108.160156 136.820313 0 7.070312 5.730469 12.800781 12.800781 12.800781h332.769531c7.0625.003906 12.792969-5.71875 12.796876-12.785156 0-.003906 0-.007813 0-.015625-.117188-65.117188-44.828126-121.675781-108.160157-136.820313zm-173.414062-106.355468c0-56.550782 45.839843-102.390626 102.390625-102.390626 56.546875 0 102.390625 45.839844 102.390625 102.390626 0 56.546874-45.839844 102.390624-102.390625 102.390624-56.523438-.066406-102.328125-45.871093-102.390625-102.390624zm-50.484375 230.378906c6.585937-58.269532 55.839844-102.320313 114.476562-102.390625h76.792969c58.640625.074219 107.894531 44.125 114.492187 102.390625zm0 0"/><path d="m508.253906 261.582031-55.585937-55.585937c14.359375-24.355469 6.257812-55.742188-18.097657-70.101563-24.355468-14.363281-55.742187-6.257812-70.105468 18.097657-14.359375 24.355468-6.257813 55.742187 18.097656 70.101562 16.042969 9.460938 35.957031 9.460938 52.003906.003906l19.386719 19.382813-9.054687 9.050781c-4.996094 5-4.996094 13.105469.003906 18.101562 4.996094 5 13.101562 5 18.101562 0l9.046875-9.050781 9.050781 9.050781-9.050781 9.050782c-5.019531 4.976562-5.054687 13.078125-.078125 18.097656 4.976563 5.019531 13.082032 5.054688 18.101563.078125.023437-.023437.050781-.050781.078125-.078125l18.101562-18.097656c4.996094-5 4.996094-13.101563 0-18.101563zm-81.453125-63.351562c-9.996093 9.996093-26.203125 9.992187-36.199219-.003907-9.996093-9.996093-9.996093-26.203124 0-36.199218 9.996094-9.996094 26.203126-9.996094 36.199219 0 10.105469 9.90625 10.453125 25.933594.546875 36.039062-.121094.121094-.238281.242188-.546875.167969zm0 0"/></svg>