<svg id="Capa_1" enable-background="new 0 0 512 512" height="512" viewBox="0 0 512 512" width="512" xmlns="http://www.w3.org/2000/svg"><g><path d="m265.771 122.305h96.966c3.853 0 6.976-3.123 6.976-6.976s-3.123-6.976-6.976-6.976h-96.966c-3.853 0-6.976 3.123-6.976 6.976s3.124 6.976 6.976 6.976z"/><path d="m258.795 147.964c0 3.853 3.123 6.976 6.976 6.976h96.966c3.853 0 6.976-3.123 6.976-6.976 0-3.853-3.123-6.976-6.976-6.976h-96.966c-3.852 0-6.976 3.123-6.976 6.976z"/><path d="m265.771 187.575h96.966c3.853 0 6.976-3.123 6.976-6.976s-3.123-6.976-6.976-6.976h-96.966c-3.853 0-6.976 3.123-6.976 6.976 0 3.852 3.124 6.976 6.976 6.976z"/><path d="m369.714 362.729c0-3.853-3.123-6.976-6.976-6.976h-90.141c-3.853 0-6.976 3.123-6.976 6.976 0 3.853 3.123 6.976 6.976 6.976h90.141c3.852 0 6.976-3.123 6.976-6.976z"/><path d="m218.496 294.655c0-3.853-3.123-6.976-6.976-6.976h-96.966c-3.853 0-6.976 3.123-6.976 6.976s3.123 6.976 6.976 6.976h96.966c3.852.001 6.976-3.123 6.976-6.976z"/><path d="m114.554 268.997h96.966c3.853 0 6.976-3.123 6.976-6.976s-3.123-6.976-6.976-6.976h-96.966c-3.853 0-6.976 3.123-6.976 6.976-.001 3.853 3.123 6.976 6.976 6.976z"/><path d="m172.382 72.694c-39.867 0-72.301 32.434-72.301 72.301s32.434 72.301 72.301 72.301 72.301-32.434 72.301-72.301-32.433-72.301-72.301-72.301zm0 129.603c-31.596 0-57.301-25.705-57.301-57.301 0-29.054 21.736-53.127 49.801-56.813v56.813c0 4.142 3.358 7.5 7.5 7.5h56.813c-3.685 28.065-27.758 49.801-56.813 49.801zm7.5-64.801v-49.313c25.61 3.363 45.95 23.703 49.313 49.313z"/><path d="m236.417 244.853v66.972c0 6.7 5.451 12.151 12.151 12.151h116.495c6.7 0 12.151-5.451 12.151-12.151v-66.972c0-6.7-5.451-12.151-12.151-12.151h-116.496c-6.7 0-12.15 5.45-12.15 12.151zm15 2.849h110.797v61.273h-110.797z"/><path d="m100.078 449.967c0 6.7 5.451 12.151 12.15 12.151h20.379c6.7 0 12.151-5.451 12.151-12.151v-101.735c0-6.7-5.451-12.15-12.151-12.15h-20.379c-6.7 0-12.15 5.451-12.15 12.15zm15-98.885h14.68v96.036h-14.68z"/><path d="m167.599 362.775c-6.7 0-12.151 5.451-12.151 12.15v75.042c0 6.7 5.451 12.151 12.151 12.151h20.378c6.7 0 12.151-5.451 12.151-12.151v-75.042c0-6.7-5.451-12.15-12.151-12.15zm17.529 84.343h-14.68v-69.343h14.68z"/><path d="m222.969 462.118h20.379c6.7 0 12.151-5.451 12.151-12.151v-41.785c0-6.7-5.451-12.151-12.151-12.151h-20.379c-6.7 0-12.151 5.451-12.151 12.151v41.785c0 6.7 5.451 12.151 12.151 12.151zm2.849-51.087h14.681v36.086h-14.681z"/><path d="m362.737 390.03h-90.141c-3.853 0-6.976 3.123-6.976 6.976s3.123 6.976 6.976 6.976h90.141c3.853 0 6.976-3.123 6.976-6.976.001-3.853-3.123-6.976-6.976-6.976z"/><path d="m362.737 424.307h-90.141c-3.853 0-6.976 3.123-6.976 6.976s3.123 6.976 6.976 6.976h90.141c3.853 0 6.976-3.123 6.976-6.976s-3.123-6.976-6.976-6.976z"/><path d="m441.285 92.989c4.142 0 7.5-3.358 7.5-7.5v-60.351c0-13.861-11.277-25.138-25.138-25.138h-300.585c-13.861 0-25.138 11.277-25.138 25.138v9.571h-9.571c-13.861 0-25.138 11.277-25.138 25.138v321.317c0 4.142 3.358 7.5 7.5 7.5s7.5-3.358 7.5-7.5v-321.317c0-5.59 4.548-10.138 10.138-10.138h300.585c5.59 0 10.138 4.548 10.138 10.138v427.015c0 5.59-4.548 10.138-10.138 10.138h-300.585c-5.59 0-10.138-4.548-10.138-10.138v-70.698c0-4.142-3.358-7.5-7.5-7.5s-7.5 3.358-7.5 7.5v70.698c0 13.861 11.277 25.138 25.138 25.138h300.585c13.861 0 25.138-11.277 25.138-25.138v-9.571h9.571c13.861 0 25.138-11.277 25.138-25.138v-331.664c0-4.142-3.358-7.5-7.5-7.5s-7.5 3.358-7.5 7.5v331.664c0 5.59-4.548 10.138-10.138 10.138h-9.571v-402.444c0-13.861-11.277-25.138-25.138-25.138-15.182 0-259.808 0-276.014 0v-9.571c0-5.59 4.548-10.138 10.138-10.138h300.585c5.59 0 10.138 4.548 10.138 10.138v60.351c0 4.142 3.358 7.5 7.5 7.5z"/></g></svg>