<svg id="Layer_1" enable-background="new 0 0 520 520" height="520" viewBox="0 0 520 520" width="520" xmlns="http://www.w3.org/2000/svg"><g id="_x31_297_x2C__Location_x2C__Map_x2C__Navigation_x2C__Place_x2C_"><path d="m496.488 10.64-156.488 58.683-156.448-58.667-.041-.015c-1.356-.517-2.824-.689-4.188-.597-2.235.153 7.692-3.351-162.834 60.597-3.903 1.463-6.489 5.194-6.489 9.362v420c0 6.973 6.975 11.815 13.511 9.364l156.489-58.683c167.032 62.622 156.911 58.946 158.412 59.188 1.798.293 3.566.071 5.1-.503l160-60c3.902-1.464 6.488-5.195 6.488-9.363v-420c0-6.976-6.975-11.815-13.512-9.366zm-466.488 76.294 140-52.5v398.641l-140 52.5zm160-52.5 140 52.5v398.641l-140-52.5zm300 398.64-140 52.5v-398.64l140-52.5z"/></g><g id="Layer_1_1_"/></svg>