<svg height="512" viewBox="0 0 128 128" width="512" xmlns="http://www.w3.org/2000/svg"><g><path d="m64 17.25a46.75 46.75 0 1 0 46.748 46.75 46.8 46.8 0 0 0 -46.748-46.75zm0 90a43.25 43.25 0 1 1 43.248-43.25 43.3 43.3 0 0 1 -43.248 43.25z"/><path d="m64 77.977a7.533 7.533 0 1 0 7.534 7.533 7.541 7.541 0 0 0 -7.534-7.533zm0 11.566a4.033 4.033 0 1 1 4.034-4.033 4.038 4.038 0 0 1 -4.034 4.033z"/><path d="m64 34.957a7.541 7.541 0 0 0 -7.533 7.533v23.8a7.534 7.534 0 0 0 15.067 0v-23.8a7.542 7.542 0 0 0 -7.534-7.533zm4.033 31.333a4.034 4.034 0 0 1 -8.067 0v-23.8a4.034 4.034 0 0 1 8.067 0z"/></g></svg>